PathFileType	4	(X/Y/Z)	C:/Users/beibeiliu/ov580/test_trc/User2\sequence.29_training_dense_left.trc
DataRate	CameraRate	NumFrames	NumMarkers	Units	OrigDataRate	OrigDataStartFrame	OrigNumFrames
120	120	17	19	mm	120	53	78
Frame#	Time	ThumbCMC			ThumbMCP			ThumbIP			ThumbTip			IndexMCP			IndexPIP			IndexTip			MiddleMCP			MiddlePIP			MiddleTip			RingMCP			RingPIP			RingTip			PinkyMCP			PinkyPIP			PinkyTip			BackHand1			BackHand2			BackHand3	
		X0	Y0	Z0	X1	Y1	Z1	X2	Y2	Z2	X3	Y3	Z3	X4	Y4	Z4	X5	Y5	Z5	X6	Y6	Z6	X7	Y7	Z7	X8	Y8	Z8	X9	Y9	Z9	X10	Y10	Z10	X11	Y11	Z11	X12	Y12	Z12	X13	Y13	Z13	X14	Y14	Z14	X15	Y15	Z15	X16	Y16	Z16	X17	Y17	Z17	X18	Y18	Z18	
52	0.433333	-171.156	25.9152	-14.3025	-157.812	7.57316	-43.1322	-147.858	-1.95016	-82.8523	-139.957	-12.6133	-100.067	-183.364	55.6538	-84.7191	-171.282	41.9126	-107.723	-160.529	21.9574	-128.447	-199.374	44.4186	-96.0496	-184.568	32.5584	-116.754	-169.46	12.5254	-140.309	-219.787	29.7446	-93.4737	-203.632	18.7553	-117.117	-189.71	2.00881	-138.158	-231.259	13.9265	-86.0952	-214.188	3.6815	-108.533	-201.095	-4.66162	-129.549	-235.382	36.2518	-33.3416	-241.246	26.7887	2.75209	-207.555	53.3482	-12.2599	
53	0.441667	-169.693	36.1456	-9.7095	-148.854	16.4001	-39.6494	-132.064	1.59466	-68.2399	-121.429	-9.87129	-81.6621	-182.531	41.9036	-87.7572	-162.059	26.5555	-105.486	-144.997	10.6832	-116.759	-189.305	26.2372	-95.1257	-168.858	8.79707	-113.474	-148.927	-10.5362	-126.95	-202.266	7.47749	-92.7997	-185.604	-8.25391	-107.872	-163.752	-19.3238	-120.709	-213.314	-8.77	-80.3919	-191.195	-19.0352	-96.6953	-174.45	-27.0378	-111.566	-237.352	18.5744	-33.2476	-239.5	19.3906	-1.78215	-214.154	50.2737	-19.4167	
54	0.45	-181.656	52.8652	-16.1669	-151.922	38.9548	-32.282	-125.694	28.1198	-56.864	-108.65	19.8708	-67.5494	-183.077	38.5615	-89.9544	-154.204	30.0775	-103.342	-132.478	21.8524	-108.013	-184.7	16.3507	-92.6891	-152.35	10.9396	-104.271	-123.971	1.64115	-112.583	-186.699	-5.55395	-85.8163	-158.795	-13.1393	-97.0331	-133.615	-13.154	-104.014	-187.494	-19.873	-74.0381	-163.746	-22.6599	-83.1143	-141.887	-23.7118	-93.656	-230.991	4.87407	-37.9579	-237.05	7.46815	-3.38703	-224.69	44.0733	-25.2844	
55	0.458333	-205.329	62.6865	-20.0862	-167.954	65.854	-35.5064	-139.717	61.9505	-52.7671	-115.919	67.9769	-62.9671	-190.404	42.4523	-91.1765	-159.99	47.8962	-99.4497	-132.652	51.4603	-102.8	-179.92	25.5533	-91.3151	-148.097	33.4985	-99.9221	-119.68	34.4425	-102.332	-173.484	6.52628	-81.0271	-140.444	11.4557	-88.0963	-118.256	20.4297	-92.8338	-166.486	-10.2966	-65.5086	-145.711	-0.364268	-71.5936	-118.934	3.79169	-82.2431	-221.634	0.197251	-38.9796	-234.886	2.94783	-9.59882	-239.792	33.4531	-30.6303	
56	0.466667	-227.045	64.8454	-27.6563	-194.756	84.6365	-37.8072	-165.305	96.3773	-53.7077	-147.062	107.646	-59.2624	-194.621	53.9318	-94.6788	-172.463	71.7028	-99.1832	-150.804	86.7364	-100.241	-175.793	40.8139	-90.5237	-149.608	60.3636	-94.2359	-123.603	76.586	-95.8683	-163.669	26.3915	-76.2455	-137.23	45.8053	-80.3929	-120.022	65.9742	-86.9277	-156.418	14.2068	-58.802	-138.189	31.4554	-64.0338	-115.764	44.5029	-73.1243	-205.888	-3.38627	-42.894	-226.202	-6.237	-9.63076	-239.86	23.9841	-39.9539	
57	0.475	-240.466	57.2395	-26.1897	-216.038	84.0168	-38.4306	-188.745	103.02	-56.3693	-175.607	120.416	-63.7114	-202.168	59.5373	-96.1634	-184.723	80.4741	-100.603	-169.465	104.101	-102.284	-180.099	49.628	-91.03	-164.463	73.2111	-95.5698	-143.462	102.455	-99.3002	-163.157	45.4704	-78.5473	-149.035	67.1456	-83.7378	-137.864	88.9247	-87.8052	-152.82	32.7421	-58.4303	-137.021	55.2979	-66.1733	-124.712	70.3495	-75.8803	-197.333	2.73921	-38.7517	-218.543	-4.74857	-12.5292	-237.386	13.4877	-38.6731	
58	0.483333	-252.63	51.8611	-27.8592	-229.744	78.8419	-43.3633	-212.214	100.86	-62.5275	-199.982	119.71	-75.618	-217.766	49.6928	-98.8633	-204.916	74.0106	-107.515	-190.201	102.798	-113.011	-194.697	44.6855	-94.9347	-181.388	76.8522	-106.464	-168.316	103.957	-114.232	-175.642	41.828	-83.8738	-163.736	68.5939	-93.418	-157.995	91.7042	-101.019	-161.101	35.6465	-65.8118	-153.177	58.2251	-77.9448	-143.234	81.088	-90.4021	-202.646	3.27531	-43.2175	-214.994	-6.33749	-9.19928	-239.163	6.14399	-38.4369	
59	0.491667	-265.702	44.6101	-26.8882	-246.607	70.5352	-49.2785	-232.394	90.0931	-73.6324	-220.775	105.787	-90.772	-240.018	38.9076	-105.213	-232.29	63.3465	-118.522	-219.435	83.2387	-124.877	-214.018	33.2758	-103.439	-207.542	58.2721	-117.949	-193.33	86.443	-128.91	-193.917	32.0647	-94.5761	-187.678	56.783	-109.354	-179.874	83.1146	-121.44	-179.701	26.0082	-73.3152	-170.71	51.2189	-95.1446	-169.861	71.4563	-105.318	-210.303	-4.21535	-37.8752	-220.032	-10.3956	-8.06485	-253.625	-0.793421	-35.2099	
60	0.5	-278.335	36.2486	-28.512	-262.129	56.6561	-56.5861	-249.873	72.2566	-90.4738	-239.884	81.1332	-107.5	-261.487	13.5439	-102.201	-253.16	34.3447	-122.773	-241.173	58.6603	-140.232	-240.659	10.3619	-107.377	-230.753	31.7457	-126.74	-223.084	59.5104	-149.042	-215.251	8.61179	-100.249	-207.145	29.333	-120.734	-206.392	51.9227	-137.021	-200.9	8.42961	-82.2693	-192.97	26.3032	-105.922	-191.63	45.2892	-123.598	-227.337	-13.6104	-41.8688	-233.272	-13.2929	-4.55389	-261.572	-8.60413	-29.2683	
61	0.508333	-283.495	35.9391	-33.6626	-266.045	48.9836	-66.1442	-253.192	54.2277	-98.8753	-243.72	58.9668	-122.55	-280.203	-2.41215	-101.848	-270.709	12.6101	-127.625	-261.261	30.7239	-148.561	-263.497	-9.20988	-109.237	-251.912	6.37653	-135.714	-241.962	25.0034	-159.914	-238.146	-17.6577	-101.508	-233.339	-3.46241	-128.129	-224.005	15.2524	-150.846	-221.098	-17.7031	-89.4448	-217.85	-3.78627	-115.09	-216.655	12.5836	-134	-246.484	-26.4342	-41.1276	-248.666	-19.5261	-7.25775	-284.605	-10.4641	-24.4718	
62	0.516667	-275.059	47.9047	-32.5701	-255.839	48.3071	-70.2967	-243.69	46.4455	-99.1911	-234.786	44.8258	-125.46	-300.361	16.3363	-103.173	-289.241	23.7087	-126.27	-269.558	31.3829	-150.399	-290.903	1.24742	-106.715	-277.523	12.6256	-136.895	-261.554	17.5901	-161.716	-273.316	-16.6015	-105.481	-266.621	-6.83088	-129.446	-252.226	5.05926	-156.04	-258.475	-25.1941	-91.5518	-251.023	-15.279	-117.778	-245.669	-4.28665	-141.18	-279.468	-22.0708	-36.5465	-273.674	-15.4188	-7.17783	-298.598	7.8577	-23.7786	
63	0.525	-254.081	58.2806	-28.1472	-239.512	53.3143	-65.6179	-234.326	47.3543	-98.6742	-229.318	42.0492	-124.261	-301.148	63.9593	-92.0521	-289.633	64.9839	-120.063	-276.621	64.2447	-145.246	-305.133	45.0612	-101.028	-293.13	49.1377	-128.168	-278.897	51.2003	-157.557	-305.099	22.6064	-98.2047	-294.505	28.495	-127.338	-281.62	30.6768	-152.518	-297.197	5.54658	-88.0328	-288.025	9.73952	-116.274	-279.312	22.3489	-138.543	-304.3	12.4816	-34.7755	-294.182	2.13485	-3.45162	-299.202	45.0184	-17.0611	
64	0.533333	-239.594	60.1086	-22.7655	-226.381	51.9485	-59.388	-227.431	50.1953	-99.7167	-228.171	43.3595	-120.349	-280.615	97.8957	-79.8662	-272.607	98.0691	-108.095	-264.649	96.4203	-130.529	-294.545	88.157	-85.6728	-286.297	86.6807	-118.597	-278.237	84.6018	-148.457	-308.25	65.228	-89.4306	-299.955	68.3108	-115.223	-287.548	70.1854	-143.073	-306.779	46.4091	-80.0901	-300.906	50.0816	-107.885	-295.178	53.8276	-130.706	-306.706	46.3942	-24.985	-296.605	30.8957	2.54856	-279.597	68.1992	-6.2113	
65	0.541667	-224.869	60.2646	-17.9278	-218.848	53.8118	-59.1343	-218.893	48.5852	-90.2946	-221.768	46.7679	-116.251	-255.386	112.755	-66.3939	-250.178	109.523	-98.6814	-244.847	106.078	-126.746	-272.407	106.246	-77.0006	-268.663	102.226	-109.8	-264.394	98.6981	-137.354	-288.808	90.9069	-79.8733	-283.964	90.6464	-108.429	-277.007	88.7332	-135.38	-298.059	71.0589	-74.9247	-295.453	70.6761	-101.042	-284.571	79.0861	-122.491	-293.549	66.2054	-15.9342	-292.29	50.5043	8.70381	-264.375	78.3729	2.47661	
66	0.55	-208.793	54.2278	-16.3991	-203.417	42.8279	-54.1644	-209.06	38.8542	-89.8013	-210.785	34.0094	-114.519	-230.183	108.813	-67.1582	-226.411	103.025	-98.0365	-222.503	92.9688	-125.811	-252.239	104.503	-78.1142	-245.111	100.066	-105.485	-242.273	87.5099	-139.478	-271.199	91.77	-79.3076	-269.359	88.1651	-106.8	-259.658	83.5038	-130.937	-286.541	74.6276	-68.7215	-279.083	72.743	-96.3235	-275.488	71.7912	-121.446	-276.341	76.5177	-11.9213	-276.026	59.5126	12.077	-243.554	82.1368	4.68782	
67	0.558333	-194.913	45.0406	-15.2776	-192	25.4028	-49.4703	-195.452	15.5102	-85.8865	-200.927	7.08619	-107.648	-217.12	85.4854	-77.0094	-210.417	73.4813	-103.464	-206.254	57.7069	-127.515	-237.02	79.4256	-84.189	-230.623	65.4679	-114.042	-227.502	48.0139	-139.032	-256.347	69.0712	-84.4082	-250.865	57.0853	-112.219	-241.853	45.6935	-135.149	-271.45	54.2363	-76.346	-265.166	45.0272	-101.193	-255.412	38.5687	-124.343	-264.191	69.976	-16.5775	-261.256	57.7752	10.2459	-229.36	76.3774	-1.64898	
68	0.566667	-186.685	39.3725	-12.9097	-177.321	13.5378	-42.6839	-177.838	-3.01528	-71.2534	-172.5	-18.481	-91.8158	-208.407	57.9772	-86.7102	-199.108	38.8152	-109.824	-193.72	18.5854	-124.455	-227.898	47.2303	-91.0823	-217.608	27.0866	-112.166	-204.306	5.62179	-131.576	-244.117	35.2825	-87.2866	-234.886	17.2946	-109.991	-224.862	0.521184	-128.261	-259.726	18.3393	-76.7618	-245.613	6.76452	-98.0794	-232.754	-1.99622	-116.286	-257.927	49.7086	-27.2327	-259.258	45.3781	6.94613	-228.29	64.9503	-11.1044	
